# xmcd
#
# Track frame offsets:
#	150
#	17699
#	28846
#	40141
#	57002
#	71716
#	89026
#	100825
#	117676
#	131088
#	145409
#	164874
#	185343
#	203141
#	214356
#	225345
#	234093
#	250403
#	261075
#	274424
#
# Disc length: 3747 seconds
#
# Revision: 1
# Processed by: cddbd v1.5.2PL0 Copyright (c) Steve Scherf et al.
# Submitted via: EZCDAudioConverter 7.0.6.1
#
DISCID=330ea114
DTITLE=Just A Bad Dream 3/3
DYEAR=2018
DGENRE=
TTITLE0=The Playn Jayn - You Weren't Born You Were Created [Live]
TTITLE1=Thee Milkshakes - Brand New Cadillac
TTITLE2=The Surfadelics - Don't Be Sorry
TTITLE3=Marionette - Too Far Gone
TTITLE4=The Beatpack - No Great Shakes
TTITLE5=The Unholy Trinity - Rock and Roll Traitor
TTITLE6=The Delmonas - He Tells Me He Loves Me
TTITLE7=The Wolfhounds - LA Juice
TTITLE8=Revolving Paint Dream - Garbagebrain
TTITLE9=Clapham South Escalators - Leave Me Alone
TTITLE10=The Primevals - My Emancipation
TTITLE11=Change Lings - Shelter From The Rain
TTITLE12=The Surf Rats - Plutonium Mind Shock
TTITLE13=The Golden Horde - The Curse
TTITLE14=Delmontes - So It's Not To Be
TTITLE15=The Gruffmen - Farmer John
TTITLE16=The Krewmen - The Hell Train
TTITLE17=Sunglasses After Dark - Hellhag Shuffle
TTITLE18=The Jackals Of Fresh Kid - Ringing In My Ears
TTITLE19=The Screaming Dead - This Is The End Of The World [Demo]
EXTD=
EXTT0=
EXTT1=
EXTT2=
EXTT3=
EXTT4=
EXTT5=
EXTT6=
EXTT7=
EXTT8=
EXTT9=
EXTT10=
EXTT11=
EXTT12=
EXTT13=
EXTT14=
EXTT15=
EXTT16=
EXTT17=
EXTT18=
EXTT19=
PLAYORDER=
